<svg width="157" height="157" viewBox="0 0 157 157" fill="none" xmlns="http://www.w3.org/2000/svg">
<path d="M80.0806 102.66C78.2606 102.66 76.3756 102.4 74.4256 101.88C72.5189 101.403 70.7206 100.818 69.0306 100.125C67.3406 99.475 65.8672 98.9333 64.6106 98.5C62.3139 97.6767 60.1689 96.875 58.1756 96.095C56.1822 95.315 54.7739 94.8383 53.9506 94.665C49.7472 93.5817 46.7789 93.04 45.0456 93.04C44.7422 93.2567 44.4606 93.43 44.2006 93.56C43.9406 93.7333 43.6589 93.8417 43.3556 93.885C43.2256 93.9283 43.0306 93.95 42.7706 93.95C41.9906 93.95 41.6006 93.69 41.6006 93.17C41.6006 92.8667 41.8389 92.5633 42.3156 92.26C42.6622 92.0867 43.0522 92 43.4856 92C43.9622 91.9567 44.4389 91.9133 44.9156 91.87C45.9122 91.0033 46.8439 89.8983 47.7106 88.555C48.6206 87.2117 49.2706 86.1933 49.6606 85.5C50.0072 84.8933 50.3322 84.3083 50.6356 83.745C50.9822 83.1383 51.3289 82.5533 51.6756 81.99C50.9822 82.1633 50.2672 82.3367 49.5306 82.51C48.7939 82.64 48.0789 82.705 47.3856 82.705C46.1289 82.705 44.9806 82.445 43.9406 81.925C42.9439 81.405 42.4456 80.4517 42.4456 79.065C42.4456 78.155 42.8356 77.31 43.6156 76.53C44.4389 75.75 45.2839 75.36 46.1506 75.36C46.6706 75.36 46.9306 75.5767 46.9306 76.01C46.9306 76.27 46.7356 76.4 46.3456 76.4C45.8689 76.4 45.4356 76.6817 45.0456 77.245C44.6556 77.8083 44.4606 78.3933 44.4606 79C44.4606 79.4333 44.5906 79.8667 44.8506 80.3C45.1539 80.69 45.6522 80.9283 46.3456 81.015C46.9956 81.145 47.6889 81.21 48.4256 81.21C49.6822 81.21 50.9606 81.0367 52.2606 80.69C52.8672 79.4767 53.4306 78.285 53.9506 77.115C54.5139 75.9017 55.0556 74.71 55.5756 73.54C56.6589 71.1567 57.7639 68.8383 58.8906 66.585C60.0172 64.3317 61.1222 62.3167 62.2056 60.54C63.2889 58.7633 64.2639 57.4417 65.1306 56.575C66.7772 55.015 68.4239 53.91 70.0706 53.26C71.7606 52.61 73.2772 52.285 74.6206 52.285C74.8806 52.285 75.1406 52.3067 75.4006 52.35C75.6606 52.35 75.8989 52.3717 76.1156 52.415C77.7189 52.675 78.8456 53.2383 79.4956 54.105C80.1456 54.9283 80.4706 55.925 80.4706 57.095C80.4706 57.7017 80.4056 58.33 80.2756 58.98C79.7122 61.71 78.5639 64.2667 76.8306 66.65C75.1406 69.0333 73.0822 71.2 70.6556 73.15C68.2289 75.0567 65.6289 76.6817 62.8556 78.025C60.1256 79.3683 57.4606 80.3433 54.8606 80.95C54.2972 81.9033 53.6906 82.8567 53.0406 83.81C52.4339 84.72 51.7622 85.63 51.0256 86.54C50.5922 87.19 49.9639 88.035 49.1406 89.075C48.3172 90.0717 47.4722 91.0033 46.6056 91.87C47.2122 91.9133 47.8622 91.9567 48.5556 92C49.2922 92.0867 50.0722 92.195 50.8956 92.325C54.4922 92.8883 58.0889 93.7117 61.6856 94.795C65.3256 95.9217 68.9222 96.94 72.4756 97.85C73.4722 98.11 74.8806 98.435 76.7006 98.825C78.5639 99.215 80.2972 99.41 81.9006 99.41C83.4606 99.41 84.6522 99.1283 85.4756 98.565C86.1256 98.175 86.4506 97.6333 86.4506 96.94C86.4506 96.42 86.2122 95.9867 85.7356 95.64C85.4756 95.4233 85.3456 95.25 85.3456 95.12C85.3456 94.6867 85.6056 94.6217 86.1256 94.925C86.6889 95.315 87.0789 95.77 87.2956 96.29C87.5556 96.81 87.6856 97.3517 87.6856 97.915C87.6856 98.565 87.5556 99.15 87.2956 99.67C87.0789 100.233 86.7972 100.623 86.4506 100.84C84.6739 102.053 82.5506 102.66 80.0806 102.66ZM55.8356 79.455C60.6456 77.375 64.8706 74.84 68.5106 71.85C72.1506 68.86 75.0322 64.9167 77.1556 60.02C77.8489 58.5033 78.1956 57.1817 78.1956 56.055C78.1956 55.145 77.9139 54.43 77.3506 53.91C77.0472 53.52 76.5489 53.325 75.8556 53.325C74.4256 53.325 72.9522 53.8233 71.4356 54.82C70.1356 55.7733 68.9006 57.03 67.7306 58.59C66.6039 60.15 65.5422 61.7967 64.5456 63.53C63.5489 65.2633 62.6606 66.91 61.8806 68.47C61.1439 69.9867 60.5156 71.2 59.9956 72.11C59.6489 72.8033 59.1072 73.8217 58.3706 75.165C57.6772 76.5083 56.8322 77.9383 55.8356 79.455Z" fill="white"/>
<path d="M106.868 102.66C105.048 102.66 103.163 102.4 101.213 101.88C99.306 101.403 97.5077 100.818 95.8177 100.125C94.1277 99.475 92.6543 98.9333 91.3977 98.5C89.101 97.6767 86.956 96.875 84.9627 96.095C82.9693 95.315 81.561 94.8383 80.7377 94.665C76.5343 93.5817 73.566 93.04 71.8327 93.04C71.5293 93.2567 71.2477 93.43 70.9877 93.56C70.7277 93.7333 70.446 93.8417 70.1427 93.885C70.0127 93.9283 69.8177 93.95 69.5577 93.95C68.7777 93.95 68.3877 93.69 68.3877 93.17C68.3877 92.8667 68.626 92.5633 69.1027 92.26C69.4493 92.0867 69.8393 92 70.2727 92C70.7493 91.9567 71.226 91.9133 71.7027 91.87C72.6993 91.0033 73.631 89.8983 74.4977 88.555C75.4077 87.2117 76.0577 86.1933 76.4477 85.5C76.7943 84.8933 77.1193 84.3083 77.4227 83.745C77.7693 83.1383 78.116 82.5533 78.4627 81.99C77.7693 82.1633 77.0543 82.3367 76.3177 82.51C75.581 82.64 74.866 82.705 74.1727 82.705C72.916 82.705 71.7677 82.445 70.7277 81.925C69.731 81.405 69.2327 80.4517 69.2327 79.065C69.2327 78.155 69.6227 77.31 70.4027 76.53C71.226 75.75 72.071 75.36 72.9377 75.36C73.4577 75.36 73.7177 75.5767 73.7177 76.01C73.7177 76.27 73.5227 76.4 73.1327 76.4C72.656 76.4 72.2227 76.6817 71.8327 77.245C71.4427 77.8083 71.2477 78.3933 71.2477 79C71.2477 79.4333 71.3777 79.8667 71.6377 80.3C71.941 80.69 72.4393 80.9283 73.1327 81.015C73.7827 81.145 74.476 81.21 75.2127 81.21C76.4693 81.21 77.7477 81.0367 79.0477 80.69C79.6543 79.4767 80.2177 78.285 80.7377 77.115C81.301 75.9017 81.8427 74.71 82.3627 73.54C83.446 71.1567 84.551 68.8383 85.6777 66.585C86.8043 64.3317 87.9093 62.3167 88.9927 60.54C90.076 58.7633 91.051 57.4417 91.9177 56.575C93.5643 55.015 95.211 53.91 96.8577 53.26C98.5477 52.61 100.064 52.285 101.408 52.285C101.668 52.285 101.928 52.3067 102.188 52.35C102.448 52.35 102.686 52.3717 102.903 52.415C104.506 52.675 105.633 53.2383 106.283 54.105C106.933 54.9283 107.258 55.925 107.258 57.095C107.258 57.7017 107.193 58.33 107.063 58.98C106.499 61.71 105.351 64.2667 103.618 66.65C101.928 69.0333 99.8693 71.2 97.4427 73.15C95.016 75.0567 92.416 76.6817 89.6427 78.025C86.9127 79.3683 84.2477 80.3433 81.6477 80.95C81.0843 81.9033 80.4777 82.8567 79.8277 83.81C79.221 84.72 78.5493 85.63 77.8127 86.54C77.3793 87.19 76.751 88.035 75.9277 89.075C75.1043 90.0717 74.2593 91.0033 73.3927 91.87C73.9993 91.9133 74.6493 91.9567 75.3427 92C76.0793 92.0867 76.8593 92.195 77.6827 92.325C81.2793 92.8883 84.876 93.7117 88.4727 94.795C92.1127 95.9217 95.7093 96.94 99.2627 97.85C100.259 98.11 101.668 98.435 103.488 98.825C105.351 99.215 107.084 99.41 108.688 99.41C110.248 99.41 111.439 99.1283 112.263 98.565C112.913 98.175 113.238 97.6333 113.238 96.94C113.238 96.42 112.999 95.9867 112.523 95.64C112.263 95.4233 112.133 95.25 112.133 95.12C112.133 94.6867 112.393 94.6217 112.913 94.925C113.476 95.315 113.866 95.77 114.083 96.29C114.343 96.81 114.473 97.3517 114.473 97.915C114.473 98.565 114.343 99.15 114.083 99.67C113.866 100.233 113.584 100.623 113.238 100.84C111.461 102.053 109.338 102.66 106.868 102.66ZM82.6227 79.455C87.4327 77.375 91.6577 74.84 95.2977 71.85C98.9377 68.86 101.819 64.9167 103.943 60.02C104.636 58.5033 104.983 57.1817 104.983 56.055C104.983 55.145 104.701 54.43 104.138 53.91C103.834 53.52 103.336 53.325 102.643 53.325C101.213 53.325 99.7393 53.8233 98.2227 54.82C96.9227 55.7733 95.6877 57.03 94.5177 58.59C93.391 60.15 92.3293 61.7967 91.3327 63.53C90.336 65.2633 89.4477 66.91 88.6677 68.47C87.931 69.9867 87.3027 71.2 86.7827 72.11C86.436 72.8033 85.8943 73.8217 85.1577 75.165C84.4643 76.5083 83.6193 77.9383 82.6227 79.455Z" fill="white"/>
<rect x="78.4706" y="9" width="98.2462" height="98.2462" rx="0.5" transform="rotate(45 78.4706 9)" stroke="white" stroke-width="2.4"/>
</svg>
