<svg width="157" height="157" viewBox="0 0 157 157" fill="none" xmlns="http://www.w3.org/2000/svg">
<rect x="78.4706" y="9" width="98.2462" height="98.2462" rx="0.5" transform="rotate(45 78.4706 9)" stroke="white" stroke-width="2.4"/>
<path fill-rule="evenodd" clip-rule="evenodd" d="M75.1056 59.8381C75.5587 60.1648 75.9905 60.476 76.3951 60.7515C73.3695 64.4953 70.9377 68.6863 68.5089 72.8722C66.9869 75.4953 65.4661 78.1163 63.801 80.6241C60.9576 79.5715 58.1324 78.8316 55.0739 79.0908C52.2881 79.3269 49.4659 80.4677 47.6359 82.6722C46.5354 83.9981 45.8644 85.6535 46.0231 87.4049C46.1495 88.7986 46.8853 90.1469 47.9525 91.0296C50.4341 93.0819 53.349 92.8826 56.3271 92.5713C59.9658 91.3006 62.9023 89.7121 65.6234 86.9393C68.0347 88.19 70.4095 89.4396 72.6897 90.9247C72.5574 91.0882 72.3989 91.3013 72.2223 91.5388C71.5329 92.4657 70.5667 93.7649 69.795 93.9421C65.0875 92.6716 61.9929 92.0241 57.1618 93.4624C56.6255 93.8789 56.1199 94.367 55.6387 94.8467C54.3676 96.1136 53.3912 97.9018 53.3892 99.7477C53.3877 101.17 53.9789 102.461 54.9645 103.461C56.6699 105.191 59.2181 106.004 61.5965 106C66.2854 105.991 69.7402 102.824 72.8458 99.6673C80.1361 103.178 88.812 106.89 97.0372 104.669C101.056 103.584 104.686 101.029 106.781 97.3546C108.433 94.4574 109.102 90.9311 108.226 87.6685C107.436 84.724 105.604 82.2112 102.969 80.6947C100.549 79.3019 97.3387 78.6671 94.6208 79.4363C91.5564 80.3036 90.042 83.0326 88.5939 85.6421L88.539 85.7411C91.526 84.6826 94.3894 83.6853 97.4721 85.1201C97.8332 85.2856 98.1746 85.4854 98.4964 85.7196C98.8182 85.9537 99.1142 86.2175 99.3843 86.5111C99.6543 86.8048 99.8931 87.1223 100.101 87.4638C100.309 87.8054 100.481 88.1643 100.618 88.5405C101.244 90.263 101.132 92.2659 100.364 93.9231C99.1869 96.4632 96.7225 98.1787 94.1715 99.0957C87.5954 101.459 81.2435 99.1364 75.301 96.2891C75.7959 95.5767 76.3389 94.8866 76.8798 94.1992C77.1338 93.8764 77.3873 93.5543 77.6351 93.2306C77.782 93.3003 77.9301 93.3707 78.0793 93.4416C81.9362 95.2752 86.5238 97.4562 90.8172 96.6132C92.7551 96.2328 94.5407 95.0831 95.6418 93.4109C96.3536 92.3298 96.7439 90.0858 96.4917 88.8231C96.4341 88.5346 96.2681 88.433 96.0566 88.3036C96.0059 88.2726 95.9527 88.24 95.8977 88.2028C94.5441 88.3309 93.47 88.878 92.3239 89.4618C92.0473 89.6027 91.7665 89.7457 91.4766 89.8855C87.8155 91.6509 84.1 90.3587 80.5109 89.0741C82.9106 85.3833 85.0125 81.461 87.1092 77.5483C88.1853 75.5402 89.26 73.5346 90.3729 71.5642C92.7729 72.477 95.0619 73.2879 97.6469 73.4834C101.36 73.7642 105.191 72.6687 108.027 70.1738C109.7 68.7019 110.837 66.788 110.983 64.5196C111.167 61.6527 109.85 58.8177 108.012 56.7025C104.958 53.1901 100.439 51.403 95.8909 51.1185C89.2436 50.7028 83.6606 53.4077 78.7885 57.7768C77.4516 56.1814 75.5115 54.5994 73.7576 53.4957C70.4387 51.4073 66.6293 50.4237 62.771 51.3485C60.1959 51.9658 57.7144 53.2837 56.297 55.6222C54.8796 57.9606 54.7897 60.8848 55.4146 63.4903C55.8391 65.2601 56.776 66.7559 58.3389 67.7116C60.2003 68.8498 63.0568 68.96 65.1148 68.4274C65.8639 68.2334 66.0714 68.1047 66.4567 67.4511C66.4398 67.327 66.4134 67.2096 66.3837 67.0882C66.1513 66.1393 65.4358 65.3247 64.6959 64.4825C63.887 63.5617 63.049 62.6078 62.7818 61.4091C62.7332 61.1915 62.7069 60.9712 62.7027 60.7482C62.6985 60.5253 62.7166 60.3042 62.7571 60.085C62.7975 59.8657 62.8594 59.6528 62.9427 59.4463C63.026 59.2398 63.1291 59.044 63.2519 58.8588C63.9778 57.7461 65.4893 56.6816 66.7875 56.418C69.5754 55.8518 72.653 58.0702 75.1056 59.8381ZM83.115 61.4151C87.037 57.5959 91.3514 54.3332 97.0853 54.4476C99.3205 54.4922 101.65 55.0782 103.247 56.7536C105.13 58.7302 105.493 61.2143 105.51 63.8549C103.923 66.1492 102.237 68.0611 99.3878 68.5717C97.3465 68.9374 94.8423 68.4828 92.851 67.925C93.0048 67.7142 93.1706 67.4811 93.3462 67.2341C94.3344 65.8443 95.636 64.0139 96.8795 63.2367C97.5645 62.8086 98.3333 62.6132 99.1056 62.417C100.138 62.1548 101.176 61.8911 102.028 61.0683C101.883 60.3237 101.713 60.1626 101.096 59.7232C99.7403 58.7558 98.0386 58.1691 96.3909 58.4688C93.2387 59.0418 90.0674 61.8713 88.2853 64.4598C86.8789 64.5766 85.1996 63.1597 83.911 62.0724C83.6238 61.8301 83.356 61.6041 83.115 61.4151ZM85.5307 68.4855C83.8517 66.8523 82.0278 65.5987 80.087 64.3093C79.1339 66.1909 77.9998 67.9925 76.8685 69.7896C76.2736 70.7346 75.6795 71.6784 75.1129 72.6319C74.4119 73.8117 73.7262 75.0129 73.039 76.2167C71.6896 78.5805 70.3343 80.9547 68.847 83.1949C70.8864 84.2882 72.9552 85.321 75.0536 86.2933C76.1569 84.4115 77.2449 82.5142 78.3336 80.6154C80.6745 76.5329 83.0196 72.4431 85.5307 68.4855ZM61.2009 84.67C59.4044 84.011 57.6573 83.3947 55.73 83.2603C55.6587 83.2861 55.5884 83.3113 55.5191 83.3361C54.6048 83.6634 53.8754 83.9246 53.3547 84.8588C53.1525 85.6395 53.0019 86.3091 53.4205 87.0449C53.8056 87.7217 54.4235 88.1314 55.164 88.3257C55.9939 88.5435 56.8753 88.3763 57.6331 88.004C58.9825 86.9958 60.0882 85.9388 61.2009 84.67ZM66.9719 97.5114C66.0108 96.5488 63.7574 95.8814 62.3134 96.3699C61.2339 96.7351 60.4389 97.412 59.955 98.4924C59.8871 99.4823 59.9058 99.627 60.3798 100.493C61.2036 101.077 62.2256 101.453 63.2438 101.27C63.5789 101.206 63.9085 101.12 64.2324 101.013C64.3939 100.911 64.562 100.81 64.7328 100.707C65.6731 100.141 66.6991 99.5232 67.2003 98.5606C67.2004 98.4558 67.2122 98.3854 67.2227 98.3231C67.2355 98.2471 67.2462 98.1831 67.2312 98.0832C67.2084 97.9316 67.117 97.6568 66.9719 97.5114Z" fill="white"/>
</svg>
